<?xml version="1.0" encoding="UTF-8" standalone="no"?>
<!-- Created with Inkscape (http://www.inkscape.org/) -->

<svg
   width="190.98126mm"
   height="171.45001mm"
   viewBox="0 0 190.98127 171.45001"
   version="1.1"
   id="svg1"
   xml:space="preserve"
   inkscape:version="1.3.2 (091e20e, 2023-11-25, custom)"
   sodipodi:docname="altlink icon.svg"
   inkscape:export-filename="altlink icon.png"
   inkscape:export-xdpi="200"
   inkscape:export-ydpi="200"
   xmlns:inkscape="http://www.inkscape.org/namespaces/inkscape"
   xmlns:sodipodi="http://sodipodi.sourceforge.net/DTD/sodipodi-0.dtd"
   xmlns="http://www.w3.org/2000/svg"
   xmlns:svg="http://www.w3.org/2000/svg"><sodipodi:namedview
     id="namedview1"
     pagecolor="#ffffff"
     bordercolor="#000000"
     borderopacity="0.25"
     inkscape:showpageshadow="2"
     inkscape:pageopacity="0.0"
     inkscape:pagecheckerboard="0"
     inkscape:deskcolor="#d1d1d1"
     inkscape:document-units="mm"
     inkscape:zoom="1.4289282"
     inkscape:cx="327.1683"
     inkscape:cy="405.19881"
     inkscape:window-width="1920"
     inkscape:window-height="991"
     inkscape:window-x="-9"
     inkscape:window-y="-9"
     inkscape:window-maximized="1"
     inkscape:current-layer="layer1" /><defs
     id="defs1" /><g
     inkscape:label="Слой 1"
     inkscape:groupmode="layer"
     id="layer1"
     transform="translate(-43.281308,-69.681372)"><path
       style="fill:#000000"
       id="path3"
       d="" /><path
       id="path5"
       style="fill:#109b91;stroke:none;fill-opacity:1"
       d="M 138.3153 69.681372 C 133.31728 69.681372 128.40873 72.193726 125.48611 76.247896 C 124.99498 76.92917 122.95005 80.701271 120.94168 84.63033 C 118.93333 88.559388 116.78787 92.726581 116.17402 93.890747 C 115.56018 95.054912 112.94152 100.11507 110.35473 105.13554 C 105.55006 114.46052 100.09374 124.94096 95.271416 134.10741 C 94.505857 135.56261 93.135927 138.182 92.227158 139.92825 C 91.318389 141.6745 89.416311 145.3059 88.000542 147.99804 C 87.823559 148.33458 87.571215 148.82358 87.371123 149.2052 C 87.025673 149.82084 86.566792 150.65414 85.967591 151.81073 C 85.20698 153.27888 84.016055 155.55189 83.320725 156.86158 C 82.625393 158.17127 81.456801 160.43346 80.723984 161.88866 C 79.991166 163.34386 79.11389 164.97871 78.774749 165.52152 C 78.435606 166.06433 78.158249 166.63215 78.158249 166.78346 C 78.158249 166.93476 77.880095 167.50257 77.540199 168.04539 C 76.806767 169.21667 71.724198 179.02055 70.758184 181.09834 C 70.550621 181.49606 70.336443 181.90605 70.154603 182.25435 C 69.980205 182.59402 69.754872 183.0218 69.415113 183.5845 C 68.975784 184.3121 68.547927 185.08601 68.464267 185.30429 C 68.196888 186.00196 67.566809 187.26448 67.078305 188.08241 C 66.817569 188.51897 65.915766 190.18585 65.073776 191.78658 C 64.231785 193.38731 63.094388 195.53044 62.546799 196.54908 C 61.999209 197.56773 60.86773 199.71085 60.032224 201.31158 C 56.231033 208.59419 55.481449 210.03428 53.422291 214.01158 C 52.21685 216.33992 50.548761 219.5546 49.715541 221.15533 C 45.228377 229.77577 43.711066 232.71281 43.38001 233.9406 C 43.368755 233.97912 43.281308 234.16106 43.281308 234.17831 C 43.281308 234.22376 43.301388 234.24359 43.303529 234.2858 C 43.276466 234.53489 43.32355 234.7003 43.416183 234.82788 C 43.41791 234.83075 43.421137 234.8328 43.422901 234.83563 C 43.466388 234.89403 43.506483 234.95253 43.563978 235.01082 C 43.783372 235.23324 44.353164 235.24993 45.435182 235.09453 C 45.771672 235.04857 46.083227 235.01077 46.528655 234.9271 C 47.419819 234.75971 48.336051 234.54429 49.244768 234.34316 C 49.462644 234.29544 49.479658 234.3024 49.715541 234.25014 C 49.800988 234.23121 49.908219 234.20103 49.99511 234.18141 C 50.754004 234.00668 51.518731 233.81677 52.287993 233.61969 C 52.954092 233.44966 53.625062 233.27021 54.330763 233.07605 C 54.888835 232.92082 55.443795 232.77144 56.006113 232.60528 C 57.043843 232.3053 58.029076 231.97217 59.081377 231.64255 C 59.578948 231.48044 60.073925 231.32363 60.573793 231.15369 C 61.957339 230.7038 63.393515 230.27483 64.664499 229.81372 C 83.461137 222.99429 104.36369 209.8563 116.80654 197.04104 L 119.33971 194.43241 L 119.65339 190.59596 C 119.82599 188.48591 120.20142 183.90199 120.48796 180.4095 C 120.77452 176.917 121.13148 172.33309 121.28068 170.22304 C 121.84686 162.21617 122.33033 157.60594 122.75191 156.20012 C 124.46916 150.47384 129.40614 145.75996 135.2204 144.29491 C 136.12279 144.06753 136.99366 143.92681 137.85176 143.84997 C 138.15732 143.83767 138.46406 143.82964 138.77212 143.83757 C 139.07994 143.82965 139.38664 143.83768 139.69196 143.84997 C 140.55007 143.92681 141.42144 144.06752 142.32384 144.29491 C 148.1381 145.75996 153.07457 150.47384 154.79181 156.20012 C 155.21339 157.60594 155.69738 162.21617 156.26356 170.22304 C 156.41276 172.33309 156.7692 176.917 157.05576 180.4095 C 157.34231 183.90199 157.71773 188.48591 157.89033 190.59596 L 158.20453 194.43241 L 160.73719 197.04104 C 173.18004 209.8563 194.08258 222.99429 212.87922 229.81372 C 214.15195 230.27546 215.5901 230.70477 216.97562 231.15524 C 217.47066 231.32352 217.96077 231.47885 218.45356 231.63944 C 219.50919 231.97018 220.49762 232.30436 221.53864 232.60528 C 222.10067 232.77135 222.65518 232.9209 223.21296 233.07605 C 223.91866 233.27021 224.58963 233.44966 225.25573 233.61969 C 226.02499 233.81677 226.78972 234.00668 227.54861 234.18141 C 227.6355 234.20103 227.74274 234.23121 227.82818 234.25014 C 228.06407 234.3024 228.08108 234.29544 228.29896 234.34316 C 229.20767 234.54429 230.1239 234.75971 231.01507 234.9271 C 231.45971 235.01062 231.77092 235.04806 232.10699 235.09401 C 233.18977 235.24959 233.76028 235.23331 233.97975 235.01082 C 234.03705 234.95272 234.0769 234.89434 234.12031 234.83615 C 234.12242 234.83277 234.126 234.83028 234.12806 234.82685 C 234.22023 234.69954 234.2671 234.53458 234.24019 234.28631 C 234.24236 234.24392 234.26242 234.22398 234.26242 234.17831 C 234.26242 234.16105 234.17447 233.97917 234.1632 233.9406 C 233.83207 232.71274 232.3152 229.77549 227.82818 221.15533 C 226.99496 219.5546 225.32687 216.33992 224.12143 214.01158 C 222.06227 210.03428 221.3127 208.59419 217.5115 201.31158 C 216.676 199.71085 215.54451 197.56773 214.99692 196.54908 C 214.44934 195.53044 213.31245 193.38731 212.47046 191.78658 C 211.62847 190.18585 210.72615 188.51897 210.46542 188.08241 C 209.97691 187.26448 209.34735 186.00196 209.07997 185.30429 C 208.99627 185.08601 208.56846 184.3121 208.12913 183.5845 C 207.79183 183.02588 207.56972 182.60497 207.39429 182.26416 C 207.20807 181.90747 206.98893 181.48674 206.77572 181.07819 C 205.7977 178.9783 200.73582 169.21486 200.00352 168.04539 C 199.66364 167.50257 199.38547 166.93476 199.38547 166.78346 C 199.38547 166.63215 199.10811 166.06433 198.76897 165.52152 C 198.42983 164.97871 197.55308 163.34386 196.82026 161.88866 C 196.08744 160.43346 194.91885 158.17127 194.22352 156.86158 C 193.52819 155.55189 192.33674 153.27888 191.57613 151.81073 C 190.97778 150.65576 190.52041 149.82515 190.17467 149.20882 C 189.97391 148.82592 189.7207 148.3356 189.54318 147.99804 C 188.12741 145.3059 186.22585 141.6745 185.31708 139.92825 C 184.40831 138.182 183.03838 135.56261 182.27282 134.10741 C 177.4505 124.94096 171.99418 114.46052 167.18951 105.13554 C 164.60272 100.11507 161.98406 95.054912 161.37022 93.890747 C 160.75637 92.726581 158.61091 88.559388 156.60256 84.63033 C 154.59419 80.701271 152.54874 76.92917 152.05761 76.247896 C 149.135 72.193726 144.22696 69.681372 139.22894 69.681372 C 139.0384 69.681372 138.94025 69.706516 138.77212 69.708761 C 138.60396 69.706515 138.50588 69.681372 138.3153 69.681372 z M 138.11531 200.60413 C 138.07972 200.6047 138.05163 200.60714 138.01609 200.60775 C 136.21407 200.6064 134.48501 200.64218 133.57089 200.75761 C 131.94465 200.96296 130.47629 201.68636 130.02898 202.50221 C 129.9093 202.72049 129.37815 204.08971 128.84869 205.54491 C 127.89187 208.17476 124.4374 215.4707 122.44547 219.06864 C 121.87243 220.10369 119.14243 224.80667 116.37866 229.51968 C 109.81086 240.71959 110.1705 239.98442 110.90147 240.71538 C 111.27408 241.08799 114.15472 241.13137 138.65016 241.13137 C 138.71435 241.13137 138.70822 241.13086 138.77212 241.13086 C 138.83575 241.13086 138.82964 241.13137 138.89356 241.13137 C 163.38901 241.13137 166.27016 241.08799 166.64277 240.71538 C 167.37374 239.98442 167.73286 240.71959 161.16507 229.51968 C 158.40129 224.80667 155.67129 220.10369 155.09826 219.06864 C 153.10633 215.4707 149.65186 208.17476 148.69503 205.54491 C 148.16557 204.08971 147.63442 202.72049 147.51474 202.50221 C 147.06743 201.68636 145.59907 200.96296 143.97284 200.75761 C 143.05862 200.64217 141.32986 200.60639 139.52763 200.60775 C 139.26769 200.60332 139.03324 200.60802 138.77212 200.60568 C 138.54652 200.6077 138.34023 200.60055 138.11531 200.60413 z " /></g></svg>
